<svg xmlns="http://www.w3.org/2000/svg" viewBox="0 0 72 52" role="img" aria-labelledby="title desc">
  <title id="title">金色紙雕千紙鶴</title>
  <desc id="desc">以多層暖金色幾何紙片組成的摺紙鶴圖案</desc>
  <defs>
    <linearGradient id="wingLeft" x1="0" y1="0" x2="1" y2="1">
      <stop offset="0" stop-color="#fff2bd"/>
      <stop offset="0.52" stop-color="#e4bd61"/>
      <stop offset="1" stop-color="#b87a24"/>
    </linearGradient>
    <linearGradient id="wingRight" x1="1" y1="0" x2="0" y2="1">
      <stop offset="0" stop-color="#f8dda0"/>
      <stop offset="0.55" stop-color="#d6a847"/>
      <stop offset="1" stop-color="#9d641e"/>
    </linearGradient>
    <filter id="shadow" x="-20%" y="-20%" width="150%" height="160%">
      <feDropShadow dx="1.8" dy="2.2" stdDeviation="1.2" flood-color="#5f421e" flood-opacity=".28"/>
    </filter>
  </defs>
  <g filter="url(#shadow)" stroke="#9c6a24" stroke-width=".55" stroke-linejoin="round">
    <path d="M5 31 27 21 14 4 35 20 26 31Z" fill="url(#wingLeft)"/>
    <path d="M34 20 56 4 45 25 38 31Z" fill="url(#wingRight)"/>
    <path d="m25 27 11-8 11 9-12 13Z" fill="#e7c36e"/>
    <path d="m25 27 10 14-17 7 7-17Z" fill="#c88c30"/>
    <path d="m45 25 12-10 5 1-4 4 9 4-18 7Z" fill="#f0d181"/>
    <path d="m49 31 18 7-27 1Z" fill="#b77724"/>
    <path d="m35 41-7 8-3-18Z" fill="#f4d98d"/>
    <path d="M27 21 35 20 25 27Z" fill="#fff0b4" opacity=".92"/>
  </g>
</svg>
