<?xml version="1.0" encoding="UTF-8"?>
<svg xmlns="http://www.w3.org/2000/svg" width="920" height="1120" viewBox="0 0 920 1120" role="img" aria-label="紙雕與陶土藝術呈現法庭拱門、量刑三階段、藍白條紋孩子象徵與檔案紙頁">
      <defs>
        <linearGradient id="night" x1="0" y1="0" x2="0" y2="1"><stop stop-color="#17373d"/><stop offset="1" stop-color="#0b1f26"/></linearGradient>
        <linearGradient id="paper" x1="0" y1="0" x2="1" y2="1"><stop stop-color="#fff5dd"/><stop offset="1" stop-color="#d9c49b"/></linearGradient>
        <filter id="shadow"><feDropShadow dx="0" dy="16" stdDeviation="14" flood-color="#07171c" flood-opacity=".45"/></filter>
        <filter id="clay"><feTurbulence baseFrequency=".75" numOctaves="2" result="n"/><feComposite in="n" in2="SourceGraphic" operator="in" result="t"/><feBlend in="SourceGraphic" in2="t" mode="multiply"/></filter>
      </defs>
      <rect width="920" height="1120" rx="42" fill="url(#night)"/>
      <circle cx="730" cy="170" r="112" fill="#d7af68" opacity=".13"/>
      <g class="paper-cloud" fill="#f6e8c9" opacity=".86"><path d="M-35 182C75 90 170 105 220 170c74-70 184-65 229 25-49 17-109 22-177 18-106 30-210 25-307-31Z"/><path d="M520 92c93-70 200-42 235 37 71-35 150-3 177 67-121 27-255 15-412-14Z" opacity=".42"/></g>
      <g class="arch">
        <path d="M116 732V352c0-190 154-270 344-270s344 80 344 270v380H656V367c0-115-88-177-196-177s-196 62-196 177v365Z" fill="#e9d9b5"/>
        <path d="M151 731V365c0-158 127-236 309-236s309 78 309 236v366h-63V368c0-133-106-200-246-200s-246 67-246 200v363Z" fill="#a64539"/>
        <path d="M236 730V382c0-104 94-168 224-168s224 64 224 168v348Z" fill="#233f48"/>
      </g>
      <g class="scale" stroke="#d8b36d" stroke-width="10" stroke-linecap="round" fill="none"><path d="M460 286v300M350 360h220"/><path d="m350 360-74 122h148Zm220 0-74 122h148Z"/><circle cx="460" cy="282" r="16" fill="#d8b36d"/></g>
      <g class="stage-ribbons">
        <path d="M88 694h744l-42 106H130Z" fill="#f1e6c9"/>
        <path d="M112 812h696l-34 92H146Z" fill="#d8b56d"/>
        <path d="M151 914h618l-31 80H182Z" fill="#9e4037"/>
        <text x="460" y="756" text-anchor="middle" fill="#17323a" font-size="40" font-weight="800">犯罪情狀與責任刑</text>
        <text x="460" y="869" text-anchor="middle" fill="#17323a" font-size="36" font-weight="800">一般情狀與個人資料</text>
        <text x="460" y="965" text-anchor="middle" fill="#fff2d7" font-size="34" font-weight="800">犯後態度・修復・復歸</text>
      </g>
      <g class="child-symbol" transform="translate(120 540)">
        <circle cx="82" cy="64" r="43" fill="#d5a789" filter="url(#clay)"/>
        <path d="M35 112q47-40 94 0l16 130H18Z" fill="#e8e1d3"/>
        <path d="M28 142h110M24 177h116M20 212h123" stroke="#4c6f86" stroke-width="22"/>
        <path d="M42 236 25 319M120 236l18 83" stroke="#d5a789" stroke-width="24" stroke-linecap="round"/>
      </g>
      <g class="documents" fill="url(#paper)"><path d="m690 440 125 23-20 153-125-23Z"/><path d="m662 462 121 34-39 145-121-33Z"/><path d="m635 494 116 43-49 135-116-42Z"/></g>
      <g class="red-thread" fill="none" stroke="#b94b40" stroke-width="7" stroke-linecap="round"><path d="M206 590C330 530 345 495 460 510s139 106 224 73"/><circle cx="206" cy="590" r="11" fill="#b94b40"/><circle cx="684" cy="583" r="11" fill="#b94b40"/></g>
      <g class="dust" fill="#e8c886"><circle cx="86" cy="312" r="5"/><circle cx="812" cy="318" r="8"/><circle cx="91" cy="465" r="9"/><circle cx="832" cy="719" r="5"/></g>
    </svg>
